D:\school\WTK\thesis\model\3dpredictsim\Results\batch_windlass\Pog_s1_tmt_bCst_d05_k800_WL30_ig24_pas_GRF.mot
nRows=17
nColumns=19

name D:\school\WTK\thesis\model\3dpredictsim\Results\batch_windlass\Pog_s1_tmt_bCst_d05_k800_WL30_ig24_pas_GRF.mot
datacolumns 19
datarows 17
range 0.5444483377 0.7186718057
endheader
time 	ground_force_vx	ground_force_vy	ground_force_vz	ground_force_px	ground_force_py	ground_force_pz	1_ground_force_vx	1_ground_force_vy	1_ground_force_vz	1_ground_force_px	1_ground_force_py	1_ground_force_pz	ground_torque_x	ground_torque_y	ground_torque_z	1_ground_torque_x	1_ground_torque_y	1_ground_torque_z
        0.5444483377	       87.1066088452	      426.0853764928	        0.3718611054	        0.3514162019	        0.0000000000	        0.0330626656	      -76.0151198736	       54.7983468253	      -18.4035077764	        0.8175309347	        0.0000000000	       -0.0449381179	        0.0000000000	        0.0000000000	        0.0000000000	        0.0000000000	        0.0000000000	        0.0000000000	
        0.5553373044	       60.7577032967	      329.6801125784	        7.4322793527	        0.3577383209	        0.0000000000	        0.0304229425	     -129.7734701463	      115.6155977380	      -40.0380385418	        0.8292858292	        0.0000000000	       -0.0429211624	        0.0000000000	        0.0000000000	        0.0000000000	        0.0000000000	        0.0000000000	        0.0000000000	
        0.5662262712	       31.2100159631	      229.8498465751	       14.7293971198	        0.3680509733	        0.0000000000	        0.0254565233	     -117.1466159806	      247.5739761542	      -56.5905996020	        0.8409199277	        0.0000000000	       -0.0427841008	        0.0000000000	        0.0000000000	        0.0000000000	        0.0000000000	        0.0000000000	        0.0000000000	
        0.5771152379	       11.4349522908	      160.8524443902	       16.4727096940	        0.3795972320	        0.0000000000	        0.0187894587	      -73.1621199872	      520.5861727789	       -6.5221351582	        0.8524981844	        0.0000000000	       -0.0442861591	        0.0000000000	        0.0000000000	        0.0000000000	        0.0000000000	        0.0000000000	        0.0000000000	
        0.5880042047	        1.6995971647	      129.1573517996	       13.2957845168	        0.3790422553	        0.0000000000	        0.0188538311	      -84.7604557809	      753.1122718948	       12.7577183682	        0.8592200995	        0.0000000000	       -0.0455538696	        0.0000000000	        0.0000000000	        0.0000000000	        0.0000000000	        0.0000000000	        0.0000000000	
        0.5988931714	       -4.3585062512	       86.5393735904	       10.1098817422	        0.3791593769	        0.0000000000	        0.0187207946	     -109.7702170744	      885.2970273055	       19.1936260374	        0.8656761995	        0.0000000000	       -0.0460495155	        0.0000000000	        0.0000000000	        0.0000000000	        0.0000000000	        0.0000000000	        0.0000000000	
        0.6097821382	      -12.2339192729	       35.4586232824	        5.3876095819	        0.3780510686	        0.0000000000	        0.0186370943	     -128.7923239149	      948.9904470538	       18.2030050326	        0.8727047875	        0.0000000000	       -0.0458733305	        0.0000000000	        0.0000000000	        0.0000000000	        0.0000000000	        0.0000000000	        0.0000000000	
        0.6206711049	        0.1208371912	       -0.1213740715	       -0.0026685589	        0.0000000000	        0.0000000000	        0.0000000000	     -126.1073753362	      950.8912179290	       17.1864260146	        0.8794806733	        0.0000000000	       -0.0452700560	        0.0000000000	        0.0000000000	        0.0000000000	        0.0000000000	        0.0000000000	        0.0000000000	
        0.6315600717	        0.0002262719	       -0.0001892601	        0.0000086032	        0.0000000000	        0.0000000000	        0.0000000000	     -110.0164626812	      896.4110534835	       16.2051297278	        0.8836878868	        0.0000000000	       -0.0447772976	        0.0000000000	        0.0000000000	        0.0000000000	        0.0000000000	        0.0000000000	        0.0000000000	
        0.6424490384	        0.0000445511	       -0.0000324787	        0.0000024191	        0.0000000000	        0.0000000000	        0.0000000000	      -92.0748474210	      827.0856921639	       16.3374565305	        0.8869876360	        0.0000000000	       -0.0444466859	        0.0000000000	        0.0000000000	        0.0000000000	        0.0000000000	        0.0000000000	        0.0000000000	
        0.6533380052	        0.0001599987	       -0.0001047912	        0.0000101093	        0.0000000000	        0.0000000000	        0.0000000000	      -77.3388576617	      766.1307309945	       16.4221993185	        0.8900439933	        0.0000000000	       -0.0442458737	        0.0000000000	        0.0000000000	        0.0000000000	        0.0000000000	        0.0000000000	        0.0000000000	
        0.6642269719	        0.0032780119	       -0.0019712481	        0.0002276899	        0.0000000000	        0.0000000000	        0.0000000000	      -64.6372821137	      718.0757602136	       16.8104839351	        0.8930444452	        0.0000000000	       -0.0441364485	        0.0000000000	        0.0000000000	        0.0000000000	        0.0000000000	        0.0000000000	        0.0000000000	
        0.6751159387	       -0.0207027926	        0.0116111589	       -0.0015479536	        0.0000000000	        0.0000000000	        0.0000000000	      -53.5330640830	      680.0335694842	       17.8632802166	        0.8962415904	        0.0000000000	       -0.0440842564	        0.0000000000	        0.0000000000	        0.0000000000	        0.0000000000	        0.0000000000	        0.0000000000	
        0.6860049055	       -0.0240688420	        0.0127369125	       -0.0019172564	        0.0000000000	        0.0000000000	        0.0000000000	      -44.0585572872	      649.3981424980	       18.6009797252	        0.8996879313	        0.0000000000	       -0.0440765047	        0.0000000000	        0.0000000000	        0.0000000000	        0.0000000000	        0.0000000000	        0.0000000000	
        0.6968938722	       -0.0149996805	        0.0075491575	       -0.0012614149	        0.0000000000	        0.0000000000	        0.0000000000	      -35.6765281309	      625.5993713030	       19.6384696564	        0.9038079683	        0.0000000000	       -0.0440678399	        0.0000000000	        0.0000000000	        0.0000000000	        0.0000000000	        0.0000000000	        0.0000000000	
        0.7077828390	       -0.0107846000	        0.0051955496	       -0.0009530297	        0.0000000000	        0.0000000000	        0.0000000000	      -29.8220401191	      608.0160784028	       20.6319050033	        0.9086537631	        0.0000000000	       -0.0440196982	        0.0000000000	        0.0000000000	        0.0000000000	        0.0000000000	        0.0000000000	        0.0000000000	
        0.7186718057	       -0.0099970460	        0.0046343505	       -0.0009206028	        0.0000000000	        0.0000000000	        0.0000000000	      -25.7404468522	      595.8429403887	       21.0628186159	        0.9138000545	        0.0000000000	       -0.0439345864	        0.0000000000	        0.0000000000	        0.0000000000	        0.0000000000	        0.0000000000	        0.0000000000	
